<?xml version="1.0" encoding="utf-8"?>
<!-- Generator: Adobe Illustrator 24.1.1, SVG Export Plug-In . SVG Version: 6.00 Build 0)  -->
<svg version="1.1" xmlns="http://www.w3.org/2000/svg" xmlns:xlink="http://www.w3.org/1999/xlink" x="0px" y="0px"
	 viewBox="0 0 375 667" style="enable-background:new 0 0 375 667;" xml:space="preserve">
<style type="text/css">
	.st0{fill:#FFFFFF;}
	.st1{fill-opacity:0;stroke:#000000;stroke-opacity:0;}
</style>
<g id="Layer_1">
</g>
<g id="Layer_2">
	<g>
		<g>
			<g>
				<g>
					<g>
						<path id="a6QYGjZpQo_5_" class="st0" d="M167.7,430l-124,55.4l-143.5,5.3l-23.4-52.5l29.8-29.2L167.7,430z M85.5,538.6
							l87.3-97.1L-67,548.6l-11.7,40.5l42,21.3L85.5,538.6z"/>
					</g>
					<g>
						<g>
							<path id="a6QYGjZpQo_2_" class="st1" d="M167.7,430l-124,55.4l-143.5,5.3l-23.4-52.5l29.8-29.2L167.7,430z M85.5,538.6
								l87.3-97.1L-67,548.6l-11.7,40.5l42,21.3L85.5,538.6z"/>
						</g>
					</g>
				</g>
				<g>
					<g>
						<path id="b2pibCz83G_5_" class="st0" d="M347.6,350.8l-124,55.4l158.6-208.5L424,195l23.4,52.5L347.6,350.8z M229.3,418.9
							l130.4-0.8l135.3-42.4l12.2-45.5l-37.9-18.3L229.3,418.9z"/>
					</g>
					<g>
						<g>
							<path id="b2pibCz83G_2_" class="st1" d="M347.6,350.8l-124,55.4l158.6-208.5L424,195l23.4,52.5L347.6,350.8z M229.3,418.9
								l130.4-0.8l135.3-42.4l12.2-45.5l-37.9-18.3L229.3,418.9z"/>
						</g>
					</g>
				</g>
				<g>
					<g>
						<path id="b4JrxQNylx_5_" class="st0" d="M309.6,695.1l17.3-7.7L220.1,421.8l-36.9,16.5L309.6,695.1z"/>
					</g>
					<g>
						<g>
							<path id="b4JrxQNylx_2_" class="st1" d="M309.6,695.1l17.3-7.7L220.1,421.8l-36.9,16.5L309.6,695.1z"/>
						</g>
					</g>
				</g>
				<g>
					<g>
						<path id="a6zwBuUonT_5_" class="st0" d="M164,404.7c-5.4-12.1-0.6-26,12.1-31.7c12.1-5.4,26.3,0,31.7,12.1
							c5.4,12.1,0,26.3-12.1,31.7C183.6,422.2,169.4,416.8,164,404.7z"/>
					</g>
					<g>
						<g>
							<path id="a6zwBuUonT_2_" class="st1" d="M164,404.7c-5.4-12.1-0.6-26,12.1-31.7c12.1-5.4,26.3,0,31.7,12.1
								c5.4,12.1,0,26.3-12.1,31.7C183.6,422.2,169.4,416.8,164,404.7z"/>
						</g>
					</g>
				</g>
			</g>
		</g>
	</g>
</g>
</svg>
