<?xml version="1.0" encoding="utf-8"?>
<!-- Generator: Adobe Illustrator 24.1.1, SVG Export Plug-In . SVG Version: 6.00 Build 0)  -->
<svg version="1.1" id="Layer_1" xmlns="http://www.w3.org/2000/svg" xmlns:xlink="http://www.w3.org/1999/xlink" x="0px" y="0px"
	 viewBox="0 0 828.7 550.4" style="enable-background:new 0 0 828.7 550.4;" xml:space="preserve">
<style type="text/css">
	.st0{fill:#A2D45E;}
	.st1{fill:#00B2E3;}
	.st2{fill:#FFFFFF;}
</style>
<g id="el_un2k1MHv8rz">
	<g id="el_SZdR07z9t7m">
		<path id="el_RD3QNdgnHJW" class="st0" d="M454.1,162.7L750.9,0l51,18.9v74.3L630,162.7H454.1z M608.5,248L790,268.6l38.7-47
			l-35.2-41.3H454.1L608.5,248z"/>
	</g>
</g>
<g id="el_eOPFA94LB6e">
	<path id="el_NHptCopfLeg" class="st1" d="M199.2,162.7L26.8,93.2V18.9L77.4,0l296.8,162.7H199.2z M374.6,181.1H35.2L0,222.5
		l38.7,47l181.6-21.1L374.6,181.1z"/>
</g>
<g id="el_4sJpR8wJfim">
	<polygon id="el_MXG8nvsUg6S" class="st2" points="426.4,550.4 440.1,181.1 388.2,181.1 401.8,550.4 	"/>
</g>
<g id="el_FKY0GG7O7UZ">
	<path id="el_2u1Y0W1JGCY" class="st2" d="M445.3,131.5c0,17.1-14.1,31.2-31.2,31.2s-31.2-14.1-31.2-31.2s14.1-31.2,31.2-31.2
		C431.7,100.2,445.3,114.3,445.3,131.5z"/>
</g>
</svg>
