<?xml version="1.0" encoding="UTF-8" standalone="no"?>
<!DOCTYPE svg PUBLIC "-//W3C//DTD SVG 1.1//EN" "http://www.w3.org/Graphics/SVG/1.1/DTD/svg11.dtd">
<svg version="1.1" xmlns="http://www.w3.org/2000/svg" xmlns:xlink="http://www.w3.org/1999/xlink" preserveAspectRatio="xMidYMid meet" viewBox="0 0 640 534" width="640" height="534"><defs><path d="M43.71 393.87L14.7 431.62L49.28 486.69C145.13 469.58 198.38 460.08 209.03 458.17C209.03 458.17 339.38 376.33 339.38 376.33C299.95 378.67 201.4 384.51 43.71 393.87ZM139.72 611.19L89.15 594.33L95.99 547.33L347.56 389.36L264.69 511.37L139.72 611.19Z" id="dcmOYevi3"></path><path d="M540.38 650.85L358.4 383.47L396.85 359.32L558.63 639.4L540.38 650.85Z" id="b1rpQV18qG"></path><path d="M623.79 125.95L589.21 70.88L542.94 80.4L398.68 339.09L528.38 257.65L623.79 125.95ZM658.52 195.01L703.83 209.28L697.04 262.15L552.64 331.02L406.95 352.98L658.52 195.01Z" id="b4t1usUW"></path><path d="M369.03 357.71C381.74 349.73 385.62 332.75 377.64 320.04C369.66 307.33 352.68 303.45 339.97 311.43C326.94 319.62 323.39 336.39 331.37 349.1C339.35 361.81 356.32 365.69 369.03 357.71Z" id="a8sf9Wbfa"></path></defs><g><g><g><use xlink:href="#dcmOYevi3" opacity="1" fill="#ffffff" fill-opacity="1"></use><g><use xlink:href="#dcmOYevi3" opacity="1" fill-opacity="0" stroke="#000000" stroke-width="1" stroke-opacity="0"></use></g></g><g><use xlink:href="#b1rpQV18qG" opacity="1" fill="#ffffff" fill-opacity="1"></use><g><use xlink:href="#b1rpQV18qG" opacity="1" fill-opacity="0" stroke="#000000" stroke-width="1" stroke-opacity="0"></use></g></g><g><use xlink:href="#b4t1usUW" opacity="1" fill="#ffffff" fill-opacity="1"></use><g><use xlink:href="#b4t1usUW" opacity="1" fill-opacity="0" stroke="#000000" stroke-width="1" stroke-opacity="0"></use></g></g><g><use xlink:href="#a8sf9Wbfa" opacity="1" fill="#ffffff" fill-opacity="1"></use><g><use xlink:href="#a8sf9Wbfa" opacity="1" fill-opacity="0" stroke="#000000" stroke-width="1" stroke-opacity="0"></use></g></g></g></g></svg>