<?xml version="1.0" encoding="utf-8"?>
<!-- Generator: Adobe Illustrator 24.1.1, SVG Export Plug-In . SVG Version: 6.00 Build 0)  -->
<svg version="1.1" id="layer" xmlns="http://www.w3.org/2000/svg" xmlns:xlink="http://www.w3.org/1999/xlink" x="0px" y="0px"
	 viewBox="0 0 600 176.5" style="enable-background:new 0 0 600 176.5;" xml:space="preserve">
<style type="text/css">
	.st0{fill:#FFFFFF;}
	.st1{fill:#A2D45E;}
	.st2{fill:#00B2E3;}
</style>
<path id="el_G0vINtvsbT" class="st0" d="M21.4,170.9H0V68h21.4V170.9z"/>
<path id="el_J-fIBV4T4z" class="st0" d="M106.6,170.9H85.2v-44.7c0-3.7-1.3-6.9-3.9-9.5s-5.8-3.9-9.6-3.9s-6.9,1.3-9.6,3.9
	c-2.6,2.6-3.9,5.8-3.9,9.5v44.7H36.8V93.4h21.4v4.1c4.4-4.1,10-6.1,16.5-6.1c9,0,16.6,3.4,22.7,10.1c6.1,6.8,9.2,15,9.2,24.7
	L106.6,170.9L106.6,170.9z"/>
<path id="el_5hczrdfEF9" class="st0" d="M156.1,114.9h-10.2V171h-21.4v-56.1h-10.2V93.5h10.2V68h21.4v25.5h10.2V114.9z"/>
<path id="el_bb1DXKT3Gcq" class="st0" d="M204.8,112.8h-3.6c-3.7,0-6.9,1.3-9.6,3.9c-2.6,2.6-3.9,5.8-3.9,9.5v44.7h-21.4V93.4h21.4
	v4.1c4.4-4.1,10.1-6.1,17-6.1L204.8,112.8L204.8,112.8z"/>
<path id="el_xEDLdQLRw13" class="st0" d="M289.9,170.9h-21.4v-5.3c-4.3,4.9-11.5,7.4-21.5,7.4c-11.1,0-20.4-3.9-27.7-11.8
	c-7.4-7.9-11-17.5-11-28.9s3.7-21,11.2-28.9s16.7-11.9,27.5-11.9c9.9,0,17,2.5,21.4,7.4v-5.4h21.4
	C289.9,93.5,289.9,170.9,289.9,170.9z M268.5,132.2c0-5.4-1.9-10-5.7-13.7c-3.7-3.7-8.3-5.6-13.7-5.6s-10,1.9-13.7,5.6
	s-5.7,8.3-5.7,13.7s1.9,10,5.7,13.7c3.7,3.7,8.3,5.7,13.7,5.7s10-1.9,13.7-5.7C266.6,142.2,268.5,137.6,268.5,132.2z"/>
<path id="el_IY-_g3okgHW" class="st0" d="M382,170.9h-21.4v-5.3c-4.3,4.9-11.4,7.4-21.5,7.4c-11.1,0-20.4-3.9-27.7-11.8
	c-7.4-7.9-11-17.5-11-28.9s3.7-21,11.2-28.9s16.7-11.9,27.5-11.9c9.9,0,17,2.5,21.4,7.4V68H382V170.9z M360.6,132.2
	c0-5.4-1.9-10-5.7-13.7c-3.7-3.7-8.3-5.6-13.7-5.6c-5.4,0-10,1.9-13.7,5.6s-5.7,8.3-5.7,13.7s1.9,10,5.7,13.7
	c3.7,3.7,8.3,5.7,13.7,5.7c5.4,0,10-1.9,13.7-5.7C358.7,142.2,360.6,137.6,360.6,132.2z"/>
<path id="el_3DYNM8SKNG7" class="st0" d="M474.1,132.2c0,11.3-4,20.9-12,28.8c-7.9,7.9-17.5,12-28.8,12s-20.9-4-28.8-12
	c-7.9-7.9-12-17.6-12-28.8c0-11.3,3.9-20.9,12-28.8c7.9-7.9,17.6-12,28.8-12c11.3,0,20.9,4,28.9,12
	C470.2,111.3,474.1,120.9,474.1,132.2z M452.7,132.2c0-5.4-1.9-10-5.7-13.7c-3.7-3.7-8.3-5.6-13.7-5.6c-5.4,0-10,1.9-13.7,5.6
	s-5.7,8.3-5.7,13.7s1.9,10,5.7,13.7c3.7,3.7,8.3,5.7,13.7,5.7c5.4,0,10-1.9,13.7-5.7C450.9,142.2,452.7,137.6,452.7,132.2z"/>
<g id="el_SZdR07z9t7m">
	<path id="el_RD3QNdgnHJW" class="st1" d="M514.8,42l67.5-37l11.6,4.3v16.9L554.8,42H514.8z M549.9,61.4l41.3,4.7l8.8-10.7l-8-9.4
		h-77.2L549.9,61.4z"/>
</g>
<g id="el_eOPFA94LB6e">
	<path id="el_NHptCopfLeg" class="st2" d="M456.8,42l-39.2-15.8V9.3L429.1,5l67.5,37H456.8z M496.7,46.2h-77.2l-8,9.4l8.8,10.7
		l41.3-4.8L496.7,46.2z"/>
</g>
<g id="el_4sJpR8wJfim">
	<polygon id="el_MXG8nvsUg6S" class="st0" points="508.5,130.2 511.6,46.2 499.8,46.2 502.9,130.2 	"/>
</g>
<g id="el_FKY0GG7O7UZ">
	<path id="el_2u1Y0W1JGCY" class="st0" d="M512.8,34.9c0,3.9-3.2,7.1-7.1,7.1s-7.1-3.2-7.1-7.1s3.2-7.1,7.1-7.1
		C509.7,27.8,512.8,31,512.8,34.9z"/>
</g>
</svg>
