<?xml version="1.0" encoding="UTF-8" standalone="no"?>
<!DOCTYPE svg PUBLIC "-//W3C//DTD SVG 1.1//EN" "http://www.w3.org/Graphics/SVG/1.1/DTD/svg11.dtd">
<svg version="1.1" xmlns="http://www.w3.org/2000/svg" xmlns:xlink="http://www.w3.org/1999/xlink" preserveAspectRatio="xMidYMid meet" viewBox="0 0 868 640" width="868" height="640"><defs><path d="M41.67 336.71L0.32 377.21L32.56 449.4C150.86 445.14 216.57 442.78 229.72 442.3C229.72 442.3 400.58 366 400.58 366C352.73 362.1 233.09 352.33 41.67 336.71ZM120.21 614.68L62.21 585.76L78.45 530.35L408.21 383.09L287.66 515.83L120.21 614.68Z" id="a4ADU2E8E"></path><path d="M595.74 730.74L422.26 377.84L472.66 355.33L619.66 720.05L595.74 730.74Z" id="a1ub8IX5c2"></path><path d="M785.63 113.1L753.4 40.91L696.07 44.48L478.32 331.29L648.33 255.36L785.63 113.1ZM815.67 202.15L867.77 227.05L850.59 289.54L665.02 347.82L485.91 349.42L815.67 202.15Z" id="db5dXdEQP"></path><path d="M439.45 348.64C456.11 341.2 463.67 321.43 456.24 304.77C448.8 288.11 429.02 280.55 412.36 287.99C395.28 295.62 388.14 315.2 395.58 331.86C403.02 348.52 422.79 356.08 439.45 348.64Z" id="a3Gyq0lsw"></path></defs><g><g><g><use xlink:href="#a4ADU2E8E" opacity="1" fill="#ffffff" fill-opacity="1"></use><g><use xlink:href="#a4ADU2E8E" opacity="1" fill-opacity="0" stroke="#000000" stroke-width="1" stroke-opacity="0"></use></g></g><g><use xlink:href="#a1ub8IX5c2" opacity="1" fill="#ffffff" fill-opacity="1"></use><g><use xlink:href="#a1ub8IX5c2" opacity="1" fill-opacity="0" stroke="#000000" stroke-width="1" stroke-opacity="0"></use></g></g><g><use xlink:href="#db5dXdEQP" opacity="1" fill="#ffffff" fill-opacity="1"></use><g><use xlink:href="#db5dXdEQP" opacity="1" fill-opacity="0" stroke="#000000" stroke-width="1" stroke-opacity="0"></use></g></g><g><use xlink:href="#a3Gyq0lsw" opacity="1" fill="#ffffff" fill-opacity="1"></use><g><use xlink:href="#a3Gyq0lsw" opacity="1" fill-opacity="0" stroke="#000000" stroke-width="1" stroke-opacity="0"></use></g></g></g></g></svg>