<?xml version="1.0" encoding="utf-8"?>
<svg id="master-artboard" viewBox="0 0 1155 861" version="1.1" xmlns="http://www.w3.org/2000/svg" x="0px" y="0px" style="enable-background:new 0 0 336 235.2;" width="1155px" height="861px"><rect id="ee-background" x="0" y="0" width="1155" height="861" style="fill: white; fill-opacity: 0; pointer-events: none;"/><g transform="matrix(1.4421484470367432, 0, 0, 1.4421484470367432, 69.33079528808594, 1.6036994457244873)"><g id="el_jboN7Lx84R">
	<g id="el_5I656kryFt">
		<g id="el_CoPtivlbzL">
			
			<g id="el_Wfq3SknCREr" transform="matrix(4.1654839515686035, 1.8601827621459959, -1.8601827621459959, 4.1654839515686035, -1042.0248496510135, -1906.174094471338)">
				<g id="el_un2k1MHv8rz">
					<g id="el_SZdR07z9t7m">
						<path id="el_RD3QNdgnHJW" class="st1" d="M541.8,278l67.5-37l11.6,4.3v16.9L581.8,278C581.8,278,541.8,278,541.8,278z&#10;&#9;&#9;&#9;&#9;&#9;&#9;&#9; M576.9,297.4l41.3,4.7l8.8-10.7l-8-9.4h-77.2L576.9,297.4z" style="fill: rgb(162, 212, 94);"/>
					</g>
				</g>
				<g id="el_l3Hek23uc86">
					<g id="el_eOPFA94LB6e">
						<path id="el_NHptCopfLeg" class="st2" d="M483.8,278l-39.2-15.8v-16.9l11.5-4.3l67.5,37H483.8z M523.7,282.2h-77.2l-8,9.4&#10;&#9;&#9;&#9;&#9;&#9;&#9;&#9;l8.8,10.7l41.3-4.8L523.7,282.2z" style="fill: rgb(0, 178, 227);"/>
					</g>
					<g id="el_4sJpR8wJfim">
						<path d="M 535.5 366.20001220703125 L 538.5999755859375 282.20001220703125 L 526.7999877929688 282.20001220703125 L 529.9000244140625 366.20001220703125 Z" id="el_MXG8nvsUg6S" class="st0" style="fill: rgb(88, 44, 130);"/>
					</g>
					<g id="el_FKY0GG7O7UZ">
						<path id="el_2u1Y0W1JGCY" class="st0" d="M539.8,270.9c0,3.9-3.2,7.1-7.1,7.1s-7.1-3.2-7.1-7.1c0-3.9,3.2-7.1,7.1-7.1&#10;&#9;&#9;&#9;&#9;&#9;&#9;&#9;C536.7,263.8,539.8,267,539.8,270.9z" style="fill: rgb(88, 44, 130);"/>
					</g>
				</g>
			</g>
		</g>
	</g>
</g></g></svg>