<?xml version="1.0" encoding="UTF-8" standalone="no"?>
<!DOCTYPE svg PUBLIC "-//W3C//DTD SVG 1.1//EN" "http://www.w3.org/Graphics/SVG/1.1/DTD/svg11.dtd">
<svg version="1.1" xmlns="http://www.w3.org/2000/svg" xmlns:xlink="http://www.w3.org/1999/xlink" preserveAspectRatio="xMidYMid meet" viewBox="0 0 375 667" width="375" height="667"><defs><path d="M468.29 408.52L498.11 437.75L474.68 490.22L331.14 484.9L207.17 429.54L468.29 408.52ZM411.51 610L453.54 588.66L441.88 548.18L202.02 441.07L289.37 538.17L411.51 610Z" id="a6QYGjZpQo"></path><path d="M-72.49 247.06L-49.06 194.59L-7.39 197.29L151.24 405.75L27.28 350.4L-72.49 247.06ZM-94.28 311.33L-132.2 329.66L-120.04 375.2L15.23 417.63L145.58 418.44L-94.28 311.33Z" id="b2pibCz83G"></path><path d="M191.71 437.85L154.8 421.37L47.97 686.94L65.26 694.66L191.71 437.85Z" id="b4JrxQNylx"></path><path d="M179.18 416.35C167.07 410.94 161.64 396.76 167.05 384.65C172.46 372.54 186.64 367.12 198.75 372.52C211.43 378.19 216.28 392.11 210.87 404.22C205.46 416.33 191.29 421.75 179.18 416.35Z" id="a6zwBuUonT"></path></defs><g><g><g><g><use xlink:href="#a6QYGjZpQo" opacity="1" fill="#ffffff" fill-opacity="1"></use><g><use xlink:href="#a6QYGjZpQo" opacity="1" fill-opacity="0" stroke="#000000" stroke-width="1" stroke-opacity="0"></use></g></g><g><use xlink:href="#b2pibCz83G" opacity="1" fill="#ffffff" fill-opacity="1"></use><g><use xlink:href="#b2pibCz83G" opacity="1" fill-opacity="0" stroke="#000000" stroke-width="1" stroke-opacity="0"></use></g></g><g><use xlink:href="#b4JrxQNylx" opacity="1" fill="#ffffff" fill-opacity="1"></use><g><use xlink:href="#b4JrxQNylx" opacity="1" fill-opacity="0" stroke="#000000" stroke-width="1" stroke-opacity="0"></use></g></g><g><use xlink:href="#a6zwBuUonT" opacity="1" fill="#ffffff" fill-opacity="1"></use><g><use xlink:href="#a6zwBuUonT" opacity="1" fill-opacity="0" stroke="#000000" stroke-width="1" stroke-opacity="0"></use></g></g></g></g></g></svg>